999
dxfrw 0.6.3
  0
SECTION
  2
HEADER
  9
$ACADVER
  1
AC1021
  9
$DWGCODEPAGE
  3
ANSI_1252
  9
$INSBASE
 10
0
 20
0
 30
0
  9
$EXTMIN
 10
-58.33956838439811
 20
-154.40916683538
 30
0
  9
$EXTMAX
 10
475.40916683538
 20
335.40916683538
 30
0
  9
$LIMMIN
 10
0
 20
0
  9
$LIMMAX
 10
420
 20
297
  9
$ORTHOMODE
 70
    0
  9
$REGENMODE
 70
    1
  9
$FILLMODE
 70
    1
  9
$QTEXTMODE
 70
    0
  9
$MIRRTEXT
 70
    0
  9
$LTSCALE
 40
1
  9
$ATTMODE
 70
    0
  9
$TEXTSIZE
 40
2.5
  9
$TRACEWID
 40
15.68
  9
$TEXTSTYLE
  7
STANDARD
  9
$CLAYER
  8
Layer02
  9
$CELTYPE
  6
BYLAYER
  9
$CECOLOR
 62
  256
  9
$CELTSCALE
 40
1
  9
$DISPSILH
 70
    0
  9
$DIMSCALE
 40
2.5
  9
$DIMASZ
 40
2.5
  9
$DIMEXO
 40
0.625
  9
$DIMDLI
 40
3.75
  9
$DIMRND
 40
0
  9
$DIMDLE
 40
0
  9
$DIMEXE
 40
1.25
  9
$DIMTP
 40
0
  9
$DIMTM
 40
0
  9
$DIMTXT
 40
2.5
  9
$DIMCEN
 40
2.5
  9
$DIMTSZ
 40
0
  9
$DIMTOL
 70
    0
  9
$DIMLIM
 70
    0
  9
$DIMTIH
 70
    0
  9
$DIMTOH
 70
    0
  9
$DIMSE1
 70
    0
  9
$DIMSE2
 70
    0
  9
$DIMTAD
 70
    1
  9
$DIMZIN
 70
    8
  9
$DIMBLK
  1

  9
$DIMASO
 70
    1
  9
$DIMSHO
 70
    1
  9
$DIMPOST
  1

  9
$DIMAPOST
  1

  9
$DIMALT
 70
    0
  9
$DIMALTD
 70
    3
  9
$DIMALTF
 40
0.03937
  9
$DIMLFAC
 40
1
  9
$DIMTOFL
 70
    1
  9
$DIMTVP
 40
0
  9
$DIMTIX
 70
    0
  9
$DIMSOXD
 70
    0
  9
$DIMSAH
 70
    0
  9
$DIMBLK1
  1

  9
$DIMBLK2
  1

  9
$DIMSTYLE
  2
STANDARD
  9
$DIMCLRD
 70
    0
  9
$DIMCLRE
 70
    0
  9
$DIMCLRT
 70
    0
  9
$DIMTFAC
 40
1
  9
$DIMGAP
 40
0.625
  9
$DIMJUST
 70
    0
  9
$DIMSD1
 70
    0
  9
$DIMSD2
 70
    0
  9
$DIMTOLJ
 70
    0
  9
$DIMTZIN
 70
    8
  9
$DIMALTZ
 70
    0
  9
$DIMALTTZ
 70
    0
  9
$DIMUPT
 70
    0
  9
$DIMDEC
 70
    2
  9
$DIMTDEC
 70
    2
  9
$DIMALTU
 70
    2
  9
$DIMALTTD
 70
    3
  9
$DIMTXSTY
  7
STANDARD
  9
$DIMAUNIT
 70
    0
  9
$DIMADEC
 70
    0
  9
$DIMALTRND
 40
0
  9
$DIMAZIN
 70
    0
  9
$DIMDSEP
 70
   44
  9
$DIMATFIT
 70
    3
  9
$DIMFRAC
 70
    0
  9
$DIMLDRBLK
  1
STANDARD
  9
$DIMLUNIT
 70
    2
  9
$DIMLWD
 70
   -2
  9
$DIMLWE
 70
   -2
  9
$DIMTMOVE
 70
    0
  9
$DIMFXL
 40
1
  9
$DIMFXLON
 70
    0
  9
$DIMJOGANG
 40
0.7854
  9
$DIMTFILL
 70
    0
  9
$DIMTFILLCLR
 70
    0
  9
$DIMARCSYM
 70
    0
  9
$DIMLTYPE
  6

  9
$DIMLTEX1
  6

  9
$DIMLTEX2
  6

  9
$LUNITS
 70
    2
  9
$LUPREC
 70
    4
  9
$SKETCHINC
 40
1
  9
$FILLETRAD
 40
0
  9
$AUNITS
 70
    0
  9
$AUPREC
 70
    2
  9
$MENU
  1
.
  9
$ELEVATION
 40
0
  9
$PELEVATION
 40
0
  9
$THICKNESS
 40
0
  9
$LIMCHECK
 70
    0
  9
$CHAMFERA
 40
0
  9
$CHAMFERB
 40
0
  9
$CHAMFERC
 40
0
  9
$CHAMFERD
 40
0
  9
$SKPOLY
 70
    0
  9
$USRTIMER
 70
    1
  9
$ANGBASE
 50
0
  9
$ANGDIR
 70
    0
  9
$PDMODE
 70
   34
  9
$PDSIZE
 40
0
  9
$PLINEWID
 40
0
  9
$SPLFRAME
 70
    0
  9
$SPLINETYPE
 70
    2
  9
$SPLINESEGS
 70
    8
  9
$HANDSEED
  5
20000
  9
$SURFTAB1
 70
    6
  9
$SURFTAB2
 70
    6
  9
$SURFTYPE
 70
    6
  9
$SURFU
 70
    6
  9
$SURFV
 70
    6
  9
$UCSBASE
  2

  9
$UCSNAME
  2

  9
$UCSORG
 10
0
 20
0
 30
0
  9
$UCSXDIR
 10
1
 20
0
 30
0
  9
$UCSYDIR
 10
0
 20
1
 30
0
  9
$UCSORTHOREF
  2

  9
$UCSORTHOVIEW
 70
    0
  9
$UCSORGTOP
 10
0
 20
0
 30
0
  9
$UCSORGBOTTOM
 10
0
 20
0
 30
0
  9
$UCSORGLEFT
 10
0
 20
0
 30
0
  9
$UCSORGRIGHT
 10
0
 20
0
 30
0
  9
$UCSORGFRONT
 10
0
 20
0
 30
0
  9
$UCSORGBACK
 10
0
 20
0
 30
0
  9
$PUCSBASE
  2

  9
$PUCSNAME
  2

  9
$PUCSORG
 10
0
 20
0
 30
0
  9
$PUCSXDIR
 10
1
 20
0
 30
0
  9
$PUCSYDIR
 10
0
 20
1
 30
0
  9
$PUCSORTHOREF
  2

  9
$PUCSORTHOVIEW
 70
    0
  9
$PUCSORGTOP
 10
0
 20
0
 30
0
  9
$PUCSORGBOTTOM
 10
0
 20
0
 30
0
  9
$PUCSORGLEFT
 10
0
 20
0
 30
0
  9
$PUCSORGRIGHT
 10
0
 20
0
 30
0
  9
$PUCSORGFRONT
 10
0
 20
0
 30
0
  9
$PUCSORGBACK
 10
0
 20
0
 30
0
  9
$USERI1
 70
    0
  9
$USERI2
 70
    0
  9
$USERI3
 70
    0
  9
$USERI4
 70
    0
  9
$USERI5
 70
    0
  9
$USERR1
 40
0
  9
$USERR2
 40
0
  9
$USERR3
 40
0
  9
$USERR4
 40
0
  9
$USERR5
 40
0
  9
$WORLDVIEW
 70
    1
  9
$SHADEDGE
 70
    3
  9
$SHADEDIF
 70
   70
  9
$TILEMODE
 70
    1
  9
$MAXACTVP
 70
   64
  9
$PINSBASE
 10
0
 20
0
 30
0
  9
$PLIMCHECK
 70
    0
  9
$PEXTMIN
 10
0
 20
0
 30
0
  9
$PEXTMAX
 10
0
 20
0
 30
0
  9
$GRIDMODE
 70
    1
  9
$SNAPSTYLE
 70
    0
  9
$PLIMMIN
 10
0
 20
0
  9
$PLIMMAX
 10
210
 20
297
  9
$UNITMODE
 70
    0
  9
$VISRETAIN
 70
    1
  9
$PLINEGEN
 70
    0
  9
$PSLTSCALE
 70
    1
  9
$TREEDEPTH
 70
 3020
  9
$CMLSTYLE
  2
Standard
  9
$CMLJUST
 70
    0
  9
$CMLSCALE
 40
20
  9
$PROXYGRAPHICS
 70
    1
  9
$MEASUREMENT
 70
    1
  9
$CELWEIGHT
370
   -1
  9
$ENDCAPS
280
    0
  9
$JOINSTYLE
280
    0
  9
$LWDISPLAY
290
    0
  9
$INSUNITS
 70
    4
  9
$HYPERLINKBASE
  1

  9
$STYLESHEET
  1

  9
$XEDIT
290
    1
  9
$CEPSNTYPE
380
    0
  9
$PSTYLEMODE
290
    1
  9
$EXTNAMES
290
    1
  9
$PSVPSCALE
 40
1
  9
$OLESTARTUP
290
    0
  9
$SORTENTS
280
  127
  9
$INDEXCTL
280
    0
  9
$HIDETEXT
280
    1
  9
$XCLIPFRAME
290
    0
  9
$HALOGAP
280
    0
  9
$OBSCOLOR
 70
  257
  9
$OBSLTYPE
280
    0
  9
$INTERSECTIONDISPLAY
280
    0
  9
$INTERSECTIONCOLOR
 70
  257
  9
$DIMASSOC
280
    1
  9
$PROJECTNAME
  1

  9
$CAMERADISPLAY
290
    0
  9
$LENSLENGTH
 40
50
  9
$CAMERAHEIGHT
 40
0
  9
$STEPSPERSEC
 40
2
  9
$STEPSIZE
 40
50
  9
$3DDWFPREC
 40
2
  9
$PSOLWIDTH
 40
5
  9
$PSOLHEIGHT
 40
80
  9
$LOFTANG1
 40
1.570796326794897
  9
$LOFTANG2
 40
1.570796326794897
  9
$LOFTMAG1
 40
0
  9
$LOFTMAG2
 40
0
  9
$LOFTPARAM
 70
    7
  9
$LOFTNORMALS
280
    1
  9
$LATITUDE
 40
1
  9
$LONGITUDE
 40
1
  9
$NORTHDIRECTION
 40
0
  9
$TIMEZONE
 70
-8000
  9
$LIGHTGLYPHDISPLAY
280
    1
  9
$TILEMODELIGHTSYNCH
280
    1
  9
$SOLIDHIST
280
    1
  9
$SHOWHIST
280
    1
  9
$DWFFRAME
280
    2
  9
$DGNFRAME
280
    0
  9
$REALWORLDSCALE
290
    1
  9
$INTERFERECOLOR
 62
    1
  9
$CSHADOW
280
    0
  9
$SHADOWPLANELOCATION
 40
0
  0
ENDSEC
  0
SECTION
  2
CLASSES
  0
ENDSEC
  0
SECTION
  2
TABLES
  0
TABLE
  2
VPORT
  5
8
330
0
100
AcDbSymbolTable
 70
    1
  0
VPORT
  5
31
330
2
100
AcDbSymbolTableRecord
100
AcDbViewportTableRecord
  2
*ACTIVE
 70
    0
 10
0
 20
0
 11
1
 21
1
 12
189.0171694561816
 22
141.2461229836594
 13
0
 23
0
 14
10
 24
10
 15
10
 25
10
 16
0
 26
0
 36
1
 17
0
 27
0
 37
0
 40
384.4650567067411
 41
1.363201911589008
 42
50
 43
0
 44
0
 50
0
 51
0
 71
    0
 72
  100
 73
    1
 74
    3
 75
    0
 76
    1
 77
    0
 78
    0
281
    0
 65
    1
110
0
120
0
130
0
111
1
121
0
131
0
112
0
122
1
132
0
 79
    0
146
0
348
10020
 60
    7
 61
    5
292
1
282
    1
141
0
142
0
 63
  250
421
3358443
  0
ENDTAB
  0
TABLE
  2
LTYPE
  5
5
330
0
100
AcDbSymbolTable
 70
    4
  0
LTYPE
  5
14
330
5
100
AcDbSymbolTableRecord
100
AcDbLinetypeTableRecord
  2
ByBlock
 70
    0
  3

 72
   65
 73
    0
 40
0
  0
LTYPE
  5
15
330
5
100
AcDbSymbolTableRecord
100
AcDbLinetypeTableRecord
  2
ByLayer
 70
    0
  3

 72
   65
 73
    0
 40
0
  0
LTYPE
  5
16
330
5
100
AcDbSymbolTableRecord
100
AcDbLinetypeTableRecord
  2
Continuous
 70
    0
  3
Solid line
 72
   65
 73
    0
 40
0
  0
LTYPE
  5
32
330
5
100
AcDbSymbolTableRecord
100
AcDbLinetypeTableRecord
  2
DOT
 70
    0
  3
Dot . . . . . . . . . . . . . . . . . . . . . .
 72
   65
 73
    2
 40
6.35
 49
0
 74
    0
 49
-6.35
 74
    0
  0
LTYPE
  5
33
330
5
100
AcDbSymbolTableRecord
100
AcDbLinetypeTableRecord
  2
DOTTINY
 70
    0
  3
Dot (.15x) .....................................
 72
   65
 73
    2
 40
0.9525
 49
0
 74
    0
 49
-0.9525
 74
    0
  0
LTYPE
  5
34
330
5
100
AcDbSymbolTableRecord
100
AcDbLinetypeTableRecord
  2
DOT2
 70
    0
  3
Dot (.5x) .....................................
 72
   65
 73
    2
 40
3.175
 49
0
 74
    0
 49
-3.175
 74
    0
  0
LTYPE
  5
35
330
5
100
AcDbSymbolTableRecord
100
AcDbLinetypeTableRecord
  2
DOTX2
 70
    0
  3
Dot (2x) .  .  .  .  .  .  .  .  .  .  .  .  .
 72
   65
 73
    2
 40
12.7
 49
0
 74
    0
 49
-12.7
 74
    0
  0
LTYPE
  5
36
330
5
100
AcDbSymbolTableRecord
100
AcDbLinetypeTableRecord
  2
DASHED
 70
    0
  3
Dashed _ _ _ _ _ _ _ _ _ _ _ _ _ _ _ _ _
 72
   65
 73
    2
 40
19.05
 49
12.7
 74
    0
 49
-6.35
 74
    0
  0
LTYPE
  5
37
330
5
100
AcDbSymbolTableRecord
100
AcDbLinetypeTableRecord
  2
DASHEDTINY
 70
    0
  3
Dashed (.15x) _ _ _ _ _ _ _ _ _ _ _ _ _ _ _ _ _
 72
   65
 73
    2
 40
2.8575
 49
1.905
 74
    0
 49
-0.9525
 74
    0
  0
LTYPE
  5
38
330
5
100
AcDbSymbolTableRecord
100
AcDbLinetypeTableRecord
  2
DASHED2
 70
    0
  3
Dashed (.5x) _ _ _ _ _ _ _ _ _ _ _ _ _ _ _ _ _
 72
   65
 73
    2
 40
9.524999999999999
 49
6.35
 74
    0
 49
-3.175
 74
    0
  0
LTYPE
  5
39
330
5
100
AcDbSymbolTableRecord
100
AcDbLinetypeTableRecord
  2
DASHEDX2
 70
    0
  3
Dashed (2x) ____  ____  ____  ____  ____  ___
 72
   65
 73
    2
 40
38.09999999999999
 49
25.4
 74
    0
 49
-12.7
 74
    0
  0
LTYPE
  5
3A
330
5
100
AcDbSymbolTableRecord
100
AcDbLinetypeTableRecord
  2
DASHDOT
 70
    0
  3
Dash dot __ . __ . __ . __ . __ . __ . __ . __
 72
   65
 73
    4
 40
25.4
 49
12.7
 74
    0
 49
-6.35
 74
    0
 49
0
 74
    0
 49
-6.35
 74
    0
  0
LTYPE
  5
3B
330
5
100
AcDbSymbolTableRecord
100
AcDbLinetypeTableRecord
  2
DASHDOTTINY
 70
    0
  3
Dash dot (.15x) _._._._._._._._._._._._._._._.
 72
   65
 73
    4
 40
3.81
 49
1.905
 74
    0
 49
-0.9525
 74
    0
 49
0
 74
    0
 49
-0.9525
 74
    0
  0
LTYPE
  5
3C
330
5
100
AcDbSymbolTableRecord
100
AcDbLinetypeTableRecord
  2
DASHDOT2
 70
    0
  3
Dash dot (.5x) _._._._._._._._._._._._._._._.
 72
   65
 73
    4
 40
12.7
 49
6.35
 74
    0
 49
-3.175
 74
    0
 49
0
 74
    0
 49
-3.175
 74
    0
  0
LTYPE
  5
3D
330
5
100
AcDbSymbolTableRecord
100
AcDbLinetypeTableRecord
  2
DASHDOTX2
 70
    0
  3
Dash dot (2x) ____  .  ____  .  ____  .  ___
 72
   65
 73
    4
 40
50.8
 49
25.4
 74
    0
 49
-12.7
 74
    0
 49
0
 74
    0
 49
-12.7
 74
    0
  0
LTYPE
  5
3E
330
5
100
AcDbSymbolTableRecord
100
AcDbLinetypeTableRecord
  2
DIVIDE
 70
    0
  3
Divide ____ . . ____ . . ____ . . ____ . . ____
 72
   65
 73
    6
 40
31.75
 49
12.7
 74
    0
 49
-6.35
 74
    0
 49
0
 74
    0
 49
-6.35
 74
    0
 49
0
 74
    0
 49
-6.35
 74
    0
  0
LTYPE
  5
3F
330
5
100
AcDbSymbolTableRecord
100
AcDbLinetypeTableRecord
  2
DIVIDETINY
 70
    0
  3
Divide (.15x) __..__..__..__..__..__..__..__.._
 72
   65
 73
    6
 40
4.7625
 49
1.905
 74
    0
 49
-0.9525
 74
    0
 49
0
 74
    0
 49
-0.9525
 74
    0
 49
0
 74
    0
 49
-0.9525
 74
    0
  0
LTYPE
  5
40
330
5
100
AcDbSymbolTableRecord
100
AcDbLinetypeTableRecord
  2
DIVIDE2
 70
    0
  3
Divide (.5x) __..__..__..__..__..__..__..__.._
 72
   65
 73
    6
 40
15.875
 49
6.35
 74
    0
 49
-3.175
 74
    0
 49
0
 74
    0
 49
-3.175
 74
    0
 49
0
 74
    0
 49
-3.175
 74
    0
  0
LTYPE
  5
41
330
5
100
AcDbSymbolTableRecord
100
AcDbLinetypeTableRecord
  2
DIVIDEX2
 70
    0
  3
Divide (2x) ________  .  .  ________  .  .  _
 72
   65
 73
    6
 40
63.5
 49
25.4
 74
    0
 49
-12.7
 74
    0
 49
0
 74
    0
 49
-12.7
 74
    0
 49
0
 74
    0
 49
-12.7
 74
    0
  0
LTYPE
  5
42
330
5
100
AcDbSymbolTableRecord
100
AcDbLinetypeTableRecord
  2
BORDER
 70
    0
  3
Border __ __ . __ __ . __ __ . __ __ . __ __ .
 72
   65
 73
    6
 40
44.45
 49
12.7
 74
    0
 49
-6.35
 74
    0
 49
12.7
 74
    0
 49
-6.35
 74
    0
 49
0
 74
    0
 49
-6.35
 74
    0
  0
LTYPE
  5
43
330
5
100
AcDbSymbolTableRecord
100
AcDbLinetypeTableRecord
  2
BORDERTINY
 70
    0
  3
Border (.15x) __.__.__.__.__.__.__.__.__.__.__.
 72
   65
 73
    6
 40
6.6675
 49
1.905
 74
    0
 49
-0.9525
 74
    0
 49
1.905
 74
    0
 49
-0.9525
 74
    0
 49
0
 74
    0
 49
-0.9525
 74
    0
  0
LTYPE
  5
44
330
5
100
AcDbSymbolTableRecord
100
AcDbLinetypeTableRecord
  2
BORDER2
 70
    0
  3
Border (.5x) __.__.__.__.__.__.__.__.__.__.__.
 72
   65
 73
    6
 40
22.225
 49
6.35
 74
    0
 49
-3.175
 74
    0
 49
6.35
 74
    0
 49
-3.175
 74
    0
 49
0
 74
    0
 49
-3.175
 74
    0
  0
LTYPE
  5
45
330
5
100
AcDbSymbolTableRecord
100
AcDbLinetypeTableRecord
  2
BORDERX2
 70
    0
  3
Border (2x) ____  ____  .  ____  ____  .  ___
 72
   65
 73
    6
 40
88.89999999999999
 49
25.4
 74
    0
 49
-12.7
 74
    0
 49
25.4
 74
    0
 49
-12.7
 74
    0
 49
0
 74
    0
 49
-12.7
 74
    0
  0
LTYPE
  5
46
330
5
100
AcDbSymbolTableRecord
100
AcDbLinetypeTableRecord
  2
CENTER
 70
    0
  3
Center ____ _ ____ _ ____ _ ____ _ ____ _ ____
 72
   65
 73
    4
 40
50.8
 49
31.75
 74
    0
 49
-6.35
 74
    0
 49
6.35
 74
    0
 49
-6.35
 74
    0
  0
LTYPE
  5
47
330
5
100
AcDbSymbolTableRecord
100
AcDbLinetypeTableRecord
  2
CENTERTINY
 70
    0
  3
Center (.15x) ___ _ ___ _ ___ _ ___ _ ___ _ ___
 72
   65
 73
    4
 40
7.619999999999999
 49
4.7625
 74
    0
 49
-0.9525
 74
    0
 49
0.9525
 74
    0
 49
-0.9525
 74
    0
  0
LTYPE
  5
48
330
5
100
AcDbSymbolTableRecord
100
AcDbLinetypeTableRecord
  2
CENTER2
 70
    0
  3
Center (.5x) ___ _ ___ _ ___ _ ___ _ ___ _ ___
 72
   65
 73
    4
 40
28.575
 49
19.05
 74
    0
 49
-3.175
 74
    0
 49
3.175
 74
    0
 49
-3.175
 74
    0
  0
LTYPE
  5
49
330
5
100
AcDbSymbolTableRecord
100
AcDbLinetypeTableRecord
  2
CENTERX2
 70
    0
  3
Center (2x) ________  __  ________  __  _____
 72
   65
 73
    4
 40
101.6
 49
63.5
 74
    0
 49
-12.7
 74
    0
 49
12.7
 74
    0
 49
-12.7
 74
    0
  0
ENDTAB
  0
TABLE
  2
LAYER
  5
2
330
0
100
AcDbSymbolTable
 70
    1
  0
LAYER
  5
10
330
2
100
AcDbSymbolTableRecord
100
AcDbLayerTableRecord
  2
0
 70
    0
 62
    7
  6
CONTINUOUS
290
0
370
    0
390
F
  0
LAYER
  5
4A
330
2
100
AcDbSymbolTableRecord
100
AcDbLayerTableRecord
  2
Layer0
 70
    4
 62
    7
  6
CONTINUOUS
290
0
370
    0
390
F
  0
LAYER
  5
4B
330
2
100
AcDbSymbolTableRecord
100
AcDbLayerTableRecord
  2
Layer01
 70
    4
 62
    7
  6
CONTINUOUS
370
    0
390
F
  0
LAYER
  5
4C
330
2
100
AcDbSymbolTableRecord
100
AcDbLayerTableRecord
  2
Layer02
 70
    4
 62
    7
  6
CONTINUOUS
370
    0
390
F
  0
ENDTAB
  0
TABLE
  2
STYLE
  5
3
330
0
100
AcDbSymbolTable
 70
    3
  0
STYLE
  5
4D
330
2
100
AcDbSymbolTableRecord
100
AcDbTextStyleTableRecord
  2
Standard
 70
    0
 40
0
 41
1
 50
0
 71
    0
 42
1
  3
txt
  4

  0
ENDTAB
  0
TABLE
  2
VIEW
  5
6
330
0
100
AcDbSymbolTable
 70
    0
  0
ENDTAB
  0
TABLE
  2
UCS
  5
7
330
0
100
AcDbSymbolTable
 70
    0
  0
ENDTAB
  0
TABLE
  2
APPID
  5
9
330
0
100
AcDbSymbolTable
 70
    1
  0
APPID
  5
12
330
9
100
AcDbSymbolTableRecord
100
AcDbRegAppTableRecord
  2
ACAD
 70
    0
  0
APPID
  5
4E
330
9
100
AcDbSymbolTableRecord
100
AcDbRegAppTableRecord
  2
LibreCad
 70
    0
  0
ENDTAB
  0
TABLE
  2
DIMSTYLE
  5
A
330
0
100
AcDbSymbolTable
 70
    1
100
AcDbDimStyleTable
 71
    1
  0
DIMSTYLE
105
4F
330
A
100
AcDbSymbolTableRecord
100
AcDbDimStyleTableRecord
  2
Standard
 70
    0
 40
2.5
 41
2.5
 42
0.625
 43
0.38
 44
1.25
 45
0
 46
0
 47
0
 48
0
 49
1
140
2.5
141
0.09
142
0
143
25.4
144
1
145
0
146
1
147
0.625
148
0
 71
    0
 72
    0
 73
    0
 74
    1
 75
    0
 76
    0
 77
    0
 78
    8
 79
    0
170
    0
171
    2
172
    0
173
    0
174
    0
175
    0
176
    0
177
    0
178
    0
179
    0
271
    2
272
    4
273
    2
274
    2
275
    0
276
    0
277
    2
278
   44
279
    0
280
    0
281
    0
282
    0
283
    1
284
    0
285
    0
286
    0
288
    0
289
    3
340
STANDARD
341

371
   -2
372
   -2
  0
ENDTAB
  0
TABLE
  2
BLOCK_RECORD
  5
1
330
0
100
AcDbSymbolTable
 70
    2
  0
BLOCK_RECORD
  5
1F
330
1
100
AcDbSymbolTableRecord
100
AcDbBlockTableRecord
  2
*Model_Space
 70
    0
280
    1
281
    0
  0
BLOCK_RECORD
  5
1E
330
1
100
AcDbSymbolTableRecord
100
AcDbBlockTableRecord
  2
*Paper_Space
 70
    0
280
    1
281
    0
  0
BLOCK_RECORD
  5
50
330
1
100
AcDbSymbolTableRecord
100
AcDbBlockTableRecord
  2
*D3
 70
    0
280
    1
281
    0
  0
BLOCK_RECORD
  5
53
330
1
100
AcDbSymbolTableRecord
100
AcDbBlockTableRecord
  2
*D2
 70
    0
280
    1
281
    0
  0
BLOCK_RECORD
  5
56
330
1
100
AcDbSymbolTableRecord
100
AcDbBlockTableRecord
  2
*D6
 70
    0
280
    1
281
    0
  0
BLOCK_RECORD
  5
59
330
1
100
AcDbSymbolTableRecord
100
AcDbBlockTableRecord
  2
*D1
 70
    0
280
    1
281
    0
  0
BLOCK_RECORD
  5
5C
330
1
100
AcDbSymbolTableRecord
100
AcDbBlockTableRecord
  2
*D8
 70
    0
280
    1
281
    0
  0
BLOCK_RECORD
  5
5F
330
1
100
AcDbSymbolTableRecord
100
AcDbBlockTableRecord
  2
*D4
 70
    0
280
    1
281
    0
  0
BLOCK_RECORD
  5
62
330
1
100
AcDbSymbolTableRecord
100
AcDbBlockTableRecord
  2
*D5
 70
    0
280
    1
281
    0
  0
BLOCK_RECORD
  5
65
330
1
100
AcDbSymbolTableRecord
100
AcDbBlockTableRecord
  2
*D7
 70
    0
280
    1
281
    0
  0
ENDTAB
  0
ENDSEC
  0
SECTION
  2
BLOCKS
  0
BLOCK
  5
20
330
1F
100
AcDbEntity
  8
0
100
AcDbBlockBegin
  2
*Model_Space
 70
    0
 10
0
 20
0
 30
0
  3
*Model_Space
  1

  0
ENDBLK
  5
21
330
1F
100
AcDbEntity
  8
0
100
AcDbBlockEnd
  0
BLOCK
  5
1C
330
1B
100
AcDbEntity
  8
0
100
AcDbBlockBegin
  2
*Paper_Space
 70
    0
 10
0
 20
0
 30
0
  3
*Paper_Space
  1

  0
ENDBLK
  5
1D
330
1F
100
AcDbEntity
  8
0
100
AcDbBlockEnd
  0
BLOCK
  5
51
330
50
100
AcDbEntity
  8
0
100
AcDbBlockBegin
  2
*D3
 70
    1
 10
0
 20
0
  3
*D3
  1

  0
LINE
  5
68
100
AcDbEntity
  8
Layer02
  6
ByBlock
 62
    0
370
   -2
100
AcDbLine
 10
20.62500000000951
 20
0
 11
20.62500000000951
 21
19
  0
SOLID
  5
69
100
AcDbEntity
  8
Layer02
  6
ByBlock
 62
    0
370
   -2
100
AcDbTrace
 10
20.62500000000951
 20
0
 30
0
 11
19.58428835557741
 21
6.25
 31
0
 12
21.66571164444161
 22
6.25
 32
0
 13
21.66571164444161
 23
6.25
 33
0
  0
SOLID
  5
6A
100
AcDbEntity
  8
Layer02
  6
ByBlock
 62
    0
370
   -2
100
AcDbTrace
 10
20.62500000000951
 20
19
 30
0
 11
21.66571164444161
 21
12.75
 31
0
 12
19.58428835557741
 22
12.75
 32
0
 13
19.58428835557741
 23
12.75
 33
0
  0
MTEXT
  5
6B
100
AcDbEntity
  8
Layer02
  6
CONTINUOUS
 62
    0
370
   -2
100
AcDbMText
 10
15.93750000000951
 20
9.500000000000002
 30
0
 40
6.25
 41
6.25
 71
    5
 72
    1
  1
19
  7
STANDARD
210
0
220
0
230
1
 50
90
 73
    2
 44
1
  0
LINE
  5
6C
100
AcDbEntity
  8
Layer02
  6
ByBlock
 62
    0
370
   -2
100
AcDbLine
 10
38.4375
 20
1.913510623667739e-16
 11
17.50000000000951
 21
3.827021247335479e-16
  0
LINE
  5
6D
100
AcDbEntity
  8
Layer02
  6
ByBlock
 62
    0
370
   -2
100
AcDbLine
 10
57.9375
 20
19
 11
17.50000000000951
 21
19
  0
ENDBLK
  5
52
330
50
100
AcDbEntity
  8
0
100
AcDbBlockEnd
  0
BLOCK
  5
54
330
53
100
AcDbEntity
  8
0
100
AcDbBlockBegin
  2
*D2
 70
    1
 10
0
 20
0
  3
*D2
  1

  0
LINE
  5
6E
100
AcDbEntity
  8
Layer02
  6
ByBlock
 62
    0
370
   -2
100
AcDbLine
 10
-1.5625
 20
1.913510623667739e-16
 11
-53.65206838439811
 21
6.570483381458805e-15
  0
LINE
  5
6F
100
AcDbEntity
  8
Layer02
  6
ByBlock
 62
    0
370
   -2
100
AcDbLine
 10
-1.5625
 20
215
 11
-53.65206838439811
 21
215
  0
LINE
  5
70
100
AcDbEntity
  8
Layer02
  6
ByBlock
 62
    0
370
   -2
100
AcDbLine
 10
-50.52706838439811
 20
6.187781256725256e-15
 11
-50.52706838439811
 21
215
  0
SOLID
  5
71
100
AcDbEntity
  8
Layer02
  6
ByBlock
 62
    0
370
   -2
100
AcDbTrace
 10
-50.52706838439811
 20
6.187781256725256e-15
 30
0
 11
-51.56778002883021
 21
6.250000000000006
 31
0
 12
-49.48635673996601
 22
6.250000000000006
 32
0
 13
-49.48635673996601
 23
6.250000000000006
 33
0
  0
SOLID
  5
72
100
AcDbEntity
  8
Layer02
  6
ByBlock
 62
    0
370
   -2
100
AcDbTrace
 10
-50.52706838439811
 20
215
 30
0
 11
-49.48635673996601
 21
208.75
 31
0
 12
-51.56778002883021
 22
208.75
 32
0
 13
-51.56778002883021
 23
208.75
 33
0
  0
MTEXT
  5
73
100
AcDbEntity
  8
Layer02
  6
CONTINUOUS
 62
    0
370
   -2
100
AcDbMText
 10
-55.21456838439811
 20
107.5
 30
0
 40
6.25
 41
11.1111111111115
 71
    5
 72
    1
  1
215
  7
STANDARD
210
0
220
0
230
1
 50
90
 73
    2
 44
1
  0
ENDBLK
  5
55
330
53
100
AcDbEntity
  8
0
100
AcDbBlockEnd
  0
BLOCK
  5
57
330
56
100
AcDbEntity
  8
0
100
AcDbBlockBegin
  2
*D6
 70
    1
 10
0
 20
0
  3
*D6
  1

  0
LINE
  5
74
100
AcDbEntity
  8
Layer02
  6
ByBlock
 62
    0
370
   -2
100
AcDbLine
 10
197
 20
247.5826350835525
 11
0
 21
247.5826350835525
  0
SOLID
  5
75
100
AcDbEntity
  8
Layer02
  6
ByBlock
 62
    0
370
   -2
100
AcDbTrace
 10
197
 20
247.5826350835525
 30
0
 11
190.75
 21
246.5419234391204
 31
0
 12
190.75
 22
248.6233467279846
 32
0
 13
190.75
 23
248.6233467279846
 33
0
  0
SOLID
  5
76
100
AcDbEntity
  8
Layer02
  6
ByBlock
 62
    0
370
   -2
100
AcDbTrace
 10
0
 20
247.5826350835525
 30
0
 11
6.25
 21
248.6233467279846
 31
0
 12
6.25
 22
246.5419234391204
 32
0
 13
6.25
 23
246.5419234391204
 33
0
  0
MTEXT
  5
77
100
AcDbEntity
  8
Layer02
  6
CONTINUOUS
 62
    0
370
   -2
100
AcDbMText
 10
98.5
 20
252.2701350835525
 30
0
 40
6.25
 41
11.11111111111111
 71
    5
 72
    1
  1
197
  7
STANDARD
210
0
220
0
230
1
 50
360
 73
    2
 44
1
  0
LINE
  5
78
100
AcDbEntity
  8
Layer02
  6
ByBlock
 62
    0
370
   -2
100
AcDbLine
 10
197
 20
132.0625
 11
197
 21
250.7076350835525
  0
LINE
  5
79
100
AcDbEntity
  8
Layer02
  6
ByBlock
 62
    0
370
   -2
100
AcDbLine
 10
9.567553118338697e-17
 20
216.5625
 11
1.913510623667739e-16
 21
250.7076350835525
  0
ENDBLK
  5
58
330
56
100
AcDbEntity
  8
0
100
AcDbBlockEnd
  0
BLOCK
  5
5A
330
59
100
AcDbEntity
  8
0
100
AcDbBlockBegin
  2
*D1
 70
    1
 10
0
 20
0
  3
*D1
  1

  0
LINE
  5
7A
100
AcDbEntity
  8
Layer02
  6
ByBlock
 62
    0
370
   -2
100
AcDbLine
 10
0
 20
-51.90507934033624
 11
290
 21
-51.90507934033624
  0
SOLID
  5
7B
100
AcDbEntity
  8
Layer02
  6
ByBlock
 62
    0
370
   -2
100
AcDbTrace
 10
0
 20
-51.90507934033624
 30
0
 11
6.25
 21
-50.86436769590414
 31
0
 12
6.25
 22
-52.94579098476834
 32
0
 13
6.25
 23
-52.94579098476834
 33
0
  0
SOLID
  5
7C
100
AcDbEntity
  8
Layer02
  6
ByBlock
 62
    0
370
   -2
100
AcDbTrace
 10
290
 20
-51.90507934033624
 30
0
 11
283.75
 21
-52.94579098476834
 31
0
 12
283.75
 22
-50.86436769590414
 32
0
 13
283.75
 23
-50.86436769590414
 33
0
  0
MTEXT
  5
7D
100
AcDbEntity
  8
Layer02
  6
CONTINUOUS
 62
    0
370
   -2
100
AcDbMText
 10
145
 20
-47.21757934033624
 30
0
 40
6.25
 41
12.5
 71
    5
 72
    1
  1
290
  7
STANDARD
210
0
220
0
230
1
 50
0
 73
    2
 44
1
  0
LINE
  5
7E
100
AcDbEntity
  8
Layer02
  6
ByBlock
 62
    0
370
   -2
100
AcDbLine
 10
-2.870265935501609e-16
 20
-1.5625
 11
-5.740531871003218e-16
 21
-55.03007934033624
  0
LINE
  5
7F
100
AcDbEntity
  8
Layer02
  6
ByBlock
 62
    0
370
   -2
100
AcDbLine
 10
290
 20
-1.5625
 11
290
 21
-55.03007934033624
  0
ENDBLK
  5
5B
330
59
100
AcDbEntity
  8
0
100
AcDbBlockEnd
  0
BLOCK
  5
5D
330
5C
100
AcDbEntity
  8
0
100
AcDbBlockBegin
  2
*D8
 70
    1
 10
0
 20
0
  3
*D8
  1

  0
LINE
  5
80
100
AcDbEntity
  8
Layer02
  6
ByBlock
 62
    0
370
   -2
100
AcDbLine
 10
22.5
 20
-14.23944654469411
 11
-12.5
 21
-14.23944654469411
  0
SOLID
  5
81
100
AcDbEntity
  8
Layer02
  6
ByBlock
 62
    0
370
   -2
100
AcDbTrace
 10
10
 20
-14.23944654469411
 30
0
 11
16.25
 21
-13.19873490026201
 31
0
 12
16.25
 22
-15.28015818912622
 32
0
 13
16.25
 23
-15.28015818912622
 33
0
  0
SOLID
  5
82
100
AcDbEntity
  8
Layer02
  6
ByBlock
 62
    0
370
   -2
100
AcDbTrace
 10
0
 20
-14.23944654469411
 30
0
 11
-6.25
 21
-15.28015818912622
 31
0
 12
-6.25
 22
-13.19873490026201
 32
0
 13
-6.25
 23
-13.19873490026201
 33
0
  0
MTEXT
  5
83
100
AcDbEntity
  8
Layer02
  6
CONTINUOUS
 62
    0
370
   -2
100
AcDbMText
 10
5
 20
-9.551946544694115
 30
0
 40
6.25
 41
6.25
 71
    5
 72
    1
  1
10
  7
STANDARD
210
0
220
0
230
1
 50
360
 73
    2
 44
1
  0
LINE
  5
84
100
AcDbEntity
  8
Layer02
  6
ByBlock
 62
    0
370
   -2
100
AcDbLine
 10
10
 20
18.4375
 11
10
 21
-17.36444654469411
  0
LINE
  5
85
100
AcDbEntity
  8
Layer02
  6
ByBlock
 62
    0
370
   -2
100
AcDbLine
 10
-2.870265935501609e-16
 20
-1.5625
 11
-5.740531871003218e-16
 21
-17.36444654469411
  0
ENDBLK
  5
5E
330
5C
100
AcDbEntity
  8
0
100
AcDbBlockEnd
  0
BLOCK
  5
60
330
5F
100
AcDbEntity
  8
0
100
AcDbBlockBegin
  2
*D4
 70
    1
 10
0
 20
0
  3
*D4
  1

  0
LINE
  5
86
100
AcDbEntity
  8
Layer0
  6
ByBlock
 62
    0
370
   -2
100
AcDbLine
 10
-2.870265935501609e-16
 20
-1.5625
 11
-6.481196801064159e-15
 21
-35.28199208444764
  0
LINE
  5
87
100
AcDbEntity
  8
Layer0
  6
ByBlock
 62
    0
370
   -2
100
AcDbLine
 10
35.00062878907892
 20
-1.5625
 11
35.00062878907892
 21
-35.28199208444764
  0
LINE
  5
88
100
AcDbEntity
  8
Layer0
  6
ByBlock
 62
    0
370
   -2
100
AcDbLine
 10
-5.907143613963837e-15
 20
-32.15699208444764
 11
35.00062878907892
 21
-32.15699208444764
  0
SOLID
  5
89
100
AcDbEntity
  8
Layer0
  6
ByBlock
 62
    0
370
   -2
100
AcDbTrace
 10
-5.907143613963837e-15
 20
-32.15699208444764
 30
0
 11
6.249999999999994
 21
-31.11628044001554
 31
0
 12
6.249999999999994
 22
-33.19770372887974
 32
0
 13
6.249999999999994
 23
-33.19770372887974
 33
0
  0
SOLID
  5
8A
100
AcDbEntity
  8
Layer0
  6
ByBlock
 62
    0
370
   -2
100
AcDbTrace
 10
35.00062878907892
 20
-32.15699208444764
 30
0
 11
28.75062878907892
 21
-33.19770372887974
 31
0
 12
28.75062878907892
 22
-31.11628044001554
 32
0
 13
28.75062878907892
 23
-31.11628044001554
 33
0
  0
MTEXT
  5
8B
100
AcDbEntity
  8
Layer0
  6
CONTINUOUS
 62
    0
370
   -2
100
AcDbMText
 10
17.50031439453945
 20
-27.46949208444764
 30
0
 40
6.25
 41
7.638888888889664
 71
    5
 72
    1
  1
35
  7
STANDARD
210
0
220
0
230
1
 50
0
 73
    2
 44
1
  0
ENDBLK
  5
61
330
5F
100
AcDbEntity
  8
0
100
AcDbBlockEnd
  0
BLOCK
  5
63
330
62
100
AcDbEntity
  8
0
100
AcDbBlockBegin
  2
*D5
 70
    1
 10
0
 20
0
  3
*D5
  1

  0
LINE
  5
8C
100
AcDbEntity
  8
Layer0
  6
ByBlock
 62
    0
370
   -2
100
AcDbLine
 10
35.00062878907892
 20
-1.5625
 11
35.00062878907892
 21
-35.28199208444764
  0
LINE
  5
8D
100
AcDbEntity
  8
Layer0
  6
ByBlock
 62
    0
370
   -2
100
AcDbLine
 10
110.0006287890789
 20
-1.5625
 11
110.0006287890789
 21
-35.28199208444764
  0
LINE
  5
8E
100
AcDbEntity
  8
Layer0
  6
ByBlock
 62
    0
370
   -2
100
AcDbLine
 10
35.00062878907892
 20
-32.15699208444764
 11
110.0006287890789
 21
-32.15699208444764
  0
SOLID
  5
8F
100
AcDbEntity
  8
Layer0
  6
ByBlock
 62
    0
370
   -2
100
AcDbTrace
 10
35.00062878907892
 20
-32.15699208444764
 30
0
 11
41.25062878907892
 21
-31.11628044001554
 31
0
 12
41.25062878907892
 22
-33.19770372887974
 32
0
 13
41.25062878907892
 23
-33.19770372887974
 33
0
  0
SOLID
  5
90
100
AcDbEntity
  8
Layer0
  6
ByBlock
 62
    0
370
   -2
100
AcDbTrace
 10
110.0006287890789
 20
-32.15699208444764
 30
0
 11
103.7506287890789
 21
-33.19770372887974
 31
0
 12
103.7506287890789
 22
-31.11628044001554
 32
0
 13
103.7506287890789
 23
-31.11628044001554
 33
0
  0
MTEXT
  5
91
100
AcDbEntity
  8
Layer0
  6
CONTINUOUS
 62
    0
370
   -2
100
AcDbMText
 10
72.50062878907892
 20
-27.46949208444764
 30
0
 40
6.25
 41
7.638888888889277
 71
    5
 72
    1
  1
75
  7
STANDARD
210
0
220
0
230
1
 50
0
 73
    2
 44
1
  0
ENDBLK
  5
64
330
62
100
AcDbEntity
  8
0
100
AcDbBlockEnd
  0
BLOCK
  5
66
330
65
100
AcDbEntity
  8
0
100
AcDbBlockBegin
  2
*D7
 70
    1
 10
0
 20
0
  3
*D7
  1

  0
LINE
  5
92
100
AcDbEntity
  8
Layer02
  6
ByBlock
 62
    0
370
   -2
100
AcDbLine
 10
315.5645089098341
 20
130.5
 11
315.5645089098341
 21
215
  0
SOLID
  5
93
100
AcDbEntity
  8
Layer02
  6
ByBlock
 62
    0
370
   -2
100
AcDbTrace
 10
315.5645089098341
 20
130.5
 30
0
 11
314.523797265402
 21
136.75
 31
0
 12
316.6052205542662
 22
136.75
 32
0
 13
316.6052205542662
 23
136.75
 33
0
  0
SOLID
  5
94
100
AcDbEntity
  8
Layer02
  6
ByBlock
 62
    0
370
   -2
100
AcDbTrace
 10
315.5645089098341
 20
215
 30
0
 11
316.6052205542662
 21
208.75
 31
0
 12
314.523797265402
 22
208.75
 32
0
 13
314.523797265402
 23
208.75
 33
0
  0
MTEXT
  5
95
100
AcDbEntity
  8
Layer02
  6
CONTINUOUS
 62
    0
370
   -2
100
AcDbMText
 10
310.8770089098341
 20
172.75
 30
0
 40
6.25
 41
15.62500000000039
 71
    5
 72
    1
  1
84,5
  7
STANDARD
210
0
220
0
230
1
 50
90
 73
    2
 44
1
  0
LINE
  5
96
100
AcDbEntity
  8
Layer02
  6
ByBlock
 62
    0
370
   -2
100
AcDbLine
 10
238.5625
 20
130.5
 11
318.6895089098341
 21
130.5
  0
LINE
  5
97
100
AcDbEntity
  8
Layer02
  6
ByBlock
 62
    0
370
   -2
100
AcDbLine
 10
291.5625
 20
215
 11
318.6895089098341
 21
215
  0
ENDBLK
  5
67
330
65
100
AcDbEntity
  8
0
100
AcDbBlockEnd
  0
ENDSEC
  0
SECTION
  2
ENTITIES
  0
LWPOLYLINE
  5
98
100
AcDbEntity
  8
Layer0
  6
ByLayer
 62
  256
370
   -1
100
AcDbPolyline
 90
    4
 70
    1
 43
0
 10
0
 20
0
 10
290
 20
0
 10
290
 20
215
 10
0
 20
215
  0
LWPOLYLINE
  5
99
100
AcDbEntity
  8
Layer0
  6
ByLayer
 62
  256
370
   -1
100
AcDbPolyline
 90
    4
 70
    1
 43
0
 10
40
 20
-13
 10
105
 20
-13
 10
105
 20
13
 10
40
 20
13
  0
LWPOLYLINE
  5
9A
100
AcDbEntity
  8
Layer0
  6
ByLayer
 62
  256
370
   -1
100
AcDbPolyline
 90
    4
 70
    1
 43
0
 10
67
 20
13
 10
78
 20
13
 10
78
 20
19
 10
67
 20
19
  0
LWPOLYLINE
  5
9B
100
AcDbEntity
  8
Layer0
  6
ByLayer
 62
  256
370
   -1
100
AcDbPolyline
 90
    4
 70
    1
 43
0
 10
59.5
 20
19
 10
85.5
 20
19
 10
85.5
 20
22
 10
59.5
 20
22
  0
LWPOLYLINE
  5
9C
100
AcDbEntity
  8
Layer0
  6
ByLayer
 62
  256
370
   -1
100
AcDbPolyline
 90
    4
 70
    1
 43
0
 10
59.5
 20
22
 10
85.5
 20
22
 10
85.5
 20
49
 10
59.5
 20
49
  0
CIRCLE
  5
9D
100
AcDbEntity
  8
Layer0
  6
ByLayer
 62
  256
370
   -1
100
AcDbCircle
 10
80.49995881509057
 20
29.0000142685132
 40
1.5
  0
CIRCLE
  5
9E
100
AcDbEntity
  8
Layer0
  6
ByLayer
 62
  256
370
   -1
100
AcDbCircle
 10
63.99995881509057
 20
29.0000142685132
 40
1.5
  0
CIRCLE
  5
9F
100
AcDbEntity
  8
Layer0
  6
ByLayer
 62
  256
370
   -1
100
AcDbCircle
 10
63.99995881509057
 20
43.0000142685132
 40
1.5
  0
CIRCLE
  5
A0
100
AcDbEntity
  8
Layer0
  6
ByLayer
 62
  256
370
   -1
100
AcDbCircle
 10
80.49995881509057
 20
43.0000142685132
 40
1.5
  0
LWPOLYLINE
  5
A1
100
AcDbEntity
  8
Layer0
  6
ByLayer
 62
  256
370
   -1
100
AcDbPolyline
 90
    4
 70
    1
 43
0
 10
192.5
 20
-13
 10
257.5
 20
-13
 10
257.5
 20
13
 10
192.5
 20
13
  0
LWPOLYLINE
  5
A2
100
AcDbEntity
  8
Layer0
  6
ByLayer
 62
  256
370
   -1
100
AcDbPolyline
 90
    4
 70
    1
 43
0
 10
219.5
 20
13
 10
230.5
 20
13
 10
230.5
 20
19
 10
219.5
 20
19
  0
LWPOLYLINE
  5
A3
100
AcDbEntity
  8
Layer0
  6
ByLayer
 62
  256
370
   -1
100
AcDbPolyline
 90
    4
 70
    1
 43
0
 10
212
 20
19
 10
238
 20
19
 10
238
 20
22
 10
212
 20
22
  0
LWPOLYLINE
  5
A4
100
AcDbEntity
  8
Layer0
  6
ByLayer
 62
  256
370
   -1
100
AcDbPolyline
 90
    4
 70
    1
 43
0
 10
212
 20
22
 10
238
 20
22
 10
238
 20
49
 10
212
 20
49
  0
CIRCLE
  5
A5
100
AcDbEntity
  8
Layer0
  6
ByLayer
 62
  256
370
   -1
100
AcDbCircle
 10
232.9999588150906
 20
29.0000142685132
 40
1.5
  0
CIRCLE
  5
A6
100
AcDbEntity
  8
Layer0
  6
ByLayer
 62
  256
370
   -1
100
AcDbCircle
 10
216.4999588150906
 20
29.0000142685132
 40
1.5
  0
CIRCLE
  5
A7
100
AcDbEntity
  8
Layer0
  6
ByLayer
 62
  256
370
   -1
100
AcDbCircle
 10
216.4999588150906
 20
43.0000142685132
 40
1.5
  0
CIRCLE
  5
A8
100
AcDbEntity
  8
Layer0
  6
ByLayer
 62
  256
370
   -1
100
AcDbCircle
 10
232.9999588150906
 20
43.0000142685132
 40
1.5
  0
LWPOLYLINE
  5
A9
100
AcDbEntity
  8
Layer0
  6
ByLayer
 62
  256
370
   -1
100
AcDbPolyline
 90
    4
 70
    1
 43
0
 10
40
 20
228
 10
105
 20
228
 10
105
 20
202
 10
40
 20
202
  0
LWPOLYLINE
  5
AA
100
AcDbEntity
  8
Layer0
  6
ByLayer
 62
  256
370
   -1
100
AcDbPolyline
 90
    4
 70
    1
 43
0
 10
67
 20
202
 10
78
 20
202
 10
78
 20
196
 10
67
 20
196
  0
LWPOLYLINE
  5
AB
100
AcDbEntity
  8
Layer0
  6
ByLayer
 62
  256
370
   -1
100
AcDbPolyline
 90
    4
 70
    1
 43
0
 10
59.5
 20
196
 10
85.5
 20
196
 10
85.5
 20
193
 10
59.5
 20
193
  0
LWPOLYLINE
  5
AC
100
AcDbEntity
  8
Layer0
  6
ByLayer
 62
  256
370
   -1
100
AcDbPolyline
 90
    4
 70
    1
 43
0
 10
59.5
 20
193
 10
85.5
 20
193
 10
85.5
 20
166
 10
59.5
 20
166
  0
CIRCLE
  5
AD
100
AcDbEntity
  8
Layer0
  6
ByLayer
 62
  256
370
   -1
100
AcDbCircle
 10
80.49995881509057
 20
185.9999857314868
 40
1.5
  0
CIRCLE
  5
AE
100
AcDbEntity
  8
Layer0
  6
ByLayer
 62
  256
370
   -1
100
AcDbCircle
 10
63.99995881509057
 20
185.9999857314868
 40
1.5
  0
CIRCLE
  5
AF
100
AcDbEntity
  8
Layer0
  6
ByLayer
 62
  256
370
   -1
100
AcDbCircle
 10
63.99995881509057
 20
171.9999857314868
 40
1.5
  0
CIRCLE
  5
B0
100
AcDbEntity
  8
Layer0
  6
ByLayer
 62
  256
370
   -1
100
AcDbCircle
 10
80.49995881509057
 20
171.9999857314868
 40
1.5
  0
LWPOLYLINE
  5
B1
100
AcDbEntity
  8
Layer0
  6
ByLayer
 62
  256
370
   -1
100
AcDbPolyline
 90
    4
 70
    1
 43
0
 10
192.5
 20
228
 10
257.5
 20
228
 10
257.5
 20
202
 10
192.5
 20
202
  0
LWPOLYLINE
  5
B2
100
AcDbEntity
  8
Layer0
  6
ByLayer
 62
  256
370
   -1
100
AcDbPolyline
 90
    4
 70
    1
 43
0
 10
219.5
 20
202
 10
230.5
 20
202
 10
230.5
 20
196
 10
219.5
 20
196
  0
LWPOLYLINE
  5
B3
100
AcDbEntity
  8
Layer0
  6
ByLayer
 62
  256
370
   -1
100
AcDbPolyline
 90
    4
 70
    1
 43
0
 10
212
 20
196
 10
238
 20
196
 10
238
 20
193
 10
212
 20
193
  0
LWPOLYLINE
  5
B4
100
AcDbEntity
  8
Layer0
  6
ByLayer
 62
  256
370
   -1
100
AcDbPolyline
 90
    4
 70
    1
 43
0
 10
212
 20
193
 10
238
 20
193
 10
238
 20
166
 10
212
 20
166
  0
CIRCLE
  5
B5
100
AcDbEntity
  8
Layer0
  6
ByLayer
 62
  256
370
   -1
100
AcDbCircle
 10
232.9999588150906
 20
185.9999857314868
 40
1.5
  0
CIRCLE
  5
B6
100
AcDbEntity
  8
Layer0
  6
ByLayer
 62
  256
370
   -1
100
AcDbCircle
 10
216.4999588150906
 20
185.9999857314868
 40
1.5
  0
CIRCLE
  5
B7
100
AcDbEntity
  8
Layer0
  6
ByLayer
 62
  256
370
   -1
100
AcDbCircle
 10
216.4999588150906
 20
171.9999857314868
 40
1.5
  0
CIRCLE
  5
B8
100
AcDbEntity
  8
Layer0
  6
ByLayer
 62
  256
370
   -1
100
AcDbCircle
 10
232.9999588150906
 20
171.9999857314868
 40
1.5
  0
LWPOLYLINE
  5
B9
100
AcDbEntity
  8
Layer01
  6
ByLayer
 62
  256
370
   -1
100
AcDbPolyline
 90
    4
 70
    1
 43
0
 10
10
 20
20
 10
54
 20
20
 10
54
 20
64
 10
10
 20
64
  0
LWPOLYLINE
  5
BA
100
AcDbEntity
  8
Layer01
  6
ByLayer
 62
  256
370
   -1
100
AcDbPolyline
 90
    4
 70
    1
 43
0
 10
10
 20
151
 10
54
 20
151
 10
54
 20
195
 10
10
 20
195
  0
LWPOLYLINE
  5
BB
100
AcDbEntity
  8
Layer01
  6
ByLayer
 62
  256
370
   -1
100
AcDbPolyline
 90
    4
 70
    1
 43
0
 10
115
 20
22.5
 10
285
 20
22.5
 10
285
 20
192.5
 10
115
 20
192.5
  0
LWPOLYLINE
  5
BC
100
AcDbEntity
  8
Layer01
  6
ByLayer
 62
  256
370
   -1
100
AcDbPolyline
 90
    4
 70
    1
 43
0
 10
5
 20
81
 10
85
 20
81
 10
85
 20
134
 10
5
 20
134
  0
LWPOLYLINE
  5
BD
100
AcDbEntity
  8
Layer01
  6
ByLayer
 62
  256
370
   -1
100
AcDbPolyline
 90
    4
 70
    1
 43
0
 10
90
 20
60.5
 10
132
 20
60.5
 10
132
 20
154.5
 10
90
 20
154.5
  0
LWPOLYLINE
  5
BE
100
AcDbEntity
  8
Layer0
  6
ByLayer
 62
  256
370
   -1
100
AcDbPolyline
 90
    4
 70
    1
 43
0
 10
197
 20
84.5
 10
237
 20
84.5
 10
237
 20
130.5
 10
197
 20
130.5
  0
CIRCLE
  5
BF
100
AcDbEntity
  8
Layer0
  6
ByLayer
 62
  256
370
   -1
100
AcDbCircle
 10
203.5
 20
90.5
 40
2.5
  0
CIRCLE
  5
C0
100
AcDbEntity
  8
Layer0
  6
ByLayer
 62
  256
370
   -1
100
AcDbCircle
 10
203.5
 20
124.5
 40
2.5
  0
CIRCLE
  5
C1
100
AcDbEntity
  8
Layer0
  6
ByLayer
 62
  256
370
   -1
100
AcDbCircle
 10
230.5
 20
90.5
 40
2.5
  0
CIRCLE
  5
C2
100
AcDbEntity
  8
Layer0
  6
ByLayer
 62
  256
370
   -1
100
AcDbCircle
 10
230.5
 20
124.5
 40
2.5
  0
DIMENSION
  5
C3
100
AcDbEntity
  8
Layer02
  6
ByLayer
 62
  256
370
   -1
100
AcDbDimension
  2
*D1
 10
293.9756706001344
 20
-51.90507934033624
 30
0
 11
145
 21
-47.21757934033624
 31
0
 70
   32
 71
    5
  3
Standard
 53
0
210
0
220
0
230
1
100
AcDbAlignedDimension
 13
0
 23
0
 33
0
 14
290
 24
0
 34
0
100
AcDbRotatedDimension
  0
DIMENSION
  5
C4
100
AcDbEntity
  8
Layer02
  6
ByLayer
 62
  256
370
   -1
100
AcDbDimension
  2
*D2
 10
-50.52706838439811
 20
215
 30
0
 11
-55.21456838439811
 21
107.5
 31
0
 70
   33
 71
    5
  3
Standard
 53
0
210
0
220
0
230
1
100
AcDbAlignedDimension
 13
0
 23
0
 33
0
 14
0
 24
215
 34
0
  0
DIMENSION
  5
C5
100
AcDbEntity
  8
Layer02
  6
ByLayer
 62
  256
370
   -1
100
AcDbDimension
  2
*D3
 10
20.62500000000951
 20
19
 30
0
 11
15.93750000000951
 21
9.500000000000002
 31
0
 70
   32
 71
    5
  3
Standard
 53
0
210
0
220
0
230
1
100
AcDbAlignedDimension
 13
40
 23
0
 33
0
 14
59.5
 24
19
 34
0
 50
90
100
AcDbRotatedDimension
  0
LWPOLYLINE
  5
C6
100
AcDbEntity
  8
Layer0
  6
ByLayer
 62
  256
370
   -1
100
AcDbPolyline
 90
    4
 70
    1
 43
0
 10
35.00062878907892
 20
0
 10
110.0006287890789
 20
0
 10
110.0006287890789
 20
19
 10
35.00062878907892
 20
19
  0
LWPOLYLINE
  5
C7
100
AcDbEntity
  8
Layer0
  6
ByLayer
 62
  256
370
   -1
100
AcDbPolyline
 90
    4
 70
    1
 43
0
 10
35.00062878907892
 20
195
 10
110.0006287890789
 20
195
 10
110.0006287890789
 20
214
 10
35.00062878907892
 20
214
  0
DIMENSION
  5
C8
100
AcDbEntity
  8
Layer0
  6
ByLayer
 62
  256
370
   -1
100
AcDbDimension
  2
*D4
 10
35.00062878907892
 20
-32.15699208444764
 30
0
 11
17.50031439453945
 21
-27.46949208444764
 31
0
 70
   33
 71
    5
  3
Standard
 53
0
210
0
220
0
230
1
100
AcDbAlignedDimension
 13
0
 23
0
 33
0
 14
35.00062878907892
 24
0
 34
0
  0
DIMENSION
  5
C9
100
AcDbEntity
  8
Layer0
  6
ByLayer
 62
  256
370
   -1
100
AcDbDimension
  2
*D5
 10
110.0006287890789
 20
-32.15699208444764
 30
0
 11
72.50062878907892
 21
-27.46949208444764
 31
0
 70
   33
 71
    5
  3
Standard
 53
0
210
0
220
0
230
1
100
AcDbAlignedDimension
 13
35.00062878907892
 23
0
 33
0
 14
110.0006287890789
 24
0
 34
0
  0
DIMENSION
  5
CA
100
AcDbEntity
  8
Layer02
  6
ByLayer
 62
  256
370
   -1
100
AcDbDimension
  2
*D6
 10
1.995110988142943e-15
 20
247.5826350835525
 30
0
 11
98.5
 21
252.2701350835525
 31
0
 70
   32
 71
    5
  3
Standard
 53
0
210
0
220
0
230
1
100
AcDbAlignedDimension
 13
197
 23
130.5
 33
0
 14
0
 24
215
 34
0
100
AcDbRotatedDimension
  0
DIMENSION
  5
CB
100
AcDbEntity
  8
Layer02
  6
ByLayer
 62
  256
370
   -1
100
AcDbDimension
  2
*D7
 10
315.5645089098341
 20
215
 30
0
 11
310.8770089098341
 21
172.75
 31
0
 70
   32
 71
    5
  3
Standard
 53
0
210
0
220
0
230
1
100
AcDbAlignedDimension
 13
237
 23
130.5
 33
0
 14
290
 24
215
 34
0
 50
90
100
AcDbRotatedDimension
  0
DIMENSION
  5
CC
100
AcDbEntity
  8
Layer02
  6
ByLayer
 62
  256
370
   -1
100
AcDbDimension
  2
*D8
 10
-8.719146316294744e-16
 20
-14.23944654469411
 30
0
 11
5
 21
-9.551946544694115
 31
0
 70
   32
 71
    5
  3
Standard
 53
0
210
0
220
0
230
1
100
AcDbAlignedDimension
 13
10
 23
20
 33
0
 14
0
 24
0
 34
0
100
AcDbRotatedDimension
  0
ENDSEC
  0
SECTION
  2
OBJECTS
  0
DICTIONARY
  5
C
330
0
100
AcDbDictionary
281
    1
  3
ACAD_GROUP
350
D
  0
DICTIONARY
  5
D
330
C
100
AcDbDictionary
281
    1
  0
ENDSEC
  0
EOF
